<svg xmlns="http://www.w3.org/2000/svg" viewBox="0 0 500 500"><g id="freepik--background-simple--inject-53"><path d="M271.54,11.58S185.32-3.64,120.85,56.08s-78.51,158.25-92,237.57S54.72,444.3,122.65,468s94.31-33.51,176-50.45S405.9,409,461.18,348.52,497.91,171.43,421.1,96.25,271.54,11.58,271.54,11.58Z" style="fill:#263238"></path></g><g id="freepik--Moon--inject-53"><circle cx="252.72" cy="191.47" r="128.28" style="fill:#fff"></circle><circle cx="252.72" cy="191.47" r="121.01" transform="translate(-61.37 234.78) rotate(-45)" style="fill:#dbdbdb"></circle></g><g id="freepik--Stars--inject-53"><path d="M143.58,191c-4-.52-4.44-.95-5-5-.52,4-.94,4.44-5,5,4,.52,4.44.94,5,5C139.14,191.92,139.56,191.5,143.58,191Z" style="fill:#e5e5e5"></path><circle cx="434.6" cy="274.33" r="8.28" style="fill:#e5e5e5"></circle><circle cx="142.43" cy="75.06" r="8.28" style="fill:#e5e5e5"></circle><circle cx="374.04" cy="311.19" r="6.61" style="fill:#e5e5e5"></circle><circle cx="383.61" cy="266.05" r="6.61" transform="translate(-14.96 509.13) rotate(-66.12)" style="fill:#e5e5e5"></circle><circle cx="109.97" cy="276.92" r="6.61" style="fill:#e5e5e5"></circle><circle cx="176.16" cy="362.18" r="6.61" style="fill:#e5e5e5"></circle><circle cx="88.24" cy="180.11" r="6.61" transform="translate(-101.51 115.15) rotate(-45)" style="fill:#e5e5e5"></circle><circle cx="41.81" cy="318.41" r="3.72" style="fill:#e5e5e5"></circle><circle cx="401.39" cy="325.32" r="3.72" style="fill:#e5e5e5"></circle><circle cx="358.16" cy="97.13" r="3.72" style="fill:#e5e5e5"></circle><circle cx="429.05" cy="175.92" r="3.72" style="fill:#e5e5e5"></circle><circle cx="163.32" cy="356.94" r="3.72" style="fill:#e5e5e5"></circle></g><g id="freepik--Platform--inject-53"><rect x="171" y="437" width="158" height="51" style="fill:#949494;stroke:#8c8c8c;stroke-linecap:round;stroke-linejoin:round"></rect><rect x="189.16" y="63" width="49" height="425" style="fill:#a3a3a3;stroke:#8c8c8c;stroke-linecap:round;stroke-linejoin:round"></rect><rect x="201.16" y="63" width="25" height="425" style="fill:#4f4f4f;stroke:#8c8c8c;stroke-linecap:round;stroke-linejoin:round"></rect><rect x="189.16" y="63" width="49" height="21" style="fill:#a3a3a3;stroke:#8c8c8c;stroke-linecap:round;stroke-linejoin:round"></rect><rect x="230.95" y="89.65" width="5.47" height="6.11" style="fill:#949494;stroke:#8c8c8c;stroke-linecap:round;stroke-linejoin:round"></rect><rect x="230.95" y="102.9" width="5.47" height="6.11" style="fill:#949494;stroke:#8c8c8c;stroke-linecap:round;stroke-linejoin:round"></rect><rect x="230.95" y="116.15" width="5.47" height="6.11" style="fill:#949494;stroke:#8c8c8c;stroke-linecap:round;stroke-linejoin:round"></rect><rect x="230.95" y="129.4" width="5.47" height="6.11" style="fill:#949494;stroke:#8c8c8c;stroke-linecap:round;stroke-linejoin:round"></rect><rect x="230.95" y="142.65" width="5.47" height="6.11" style="fill:#949494;stroke:#8c8c8c;stroke-linecap:round;stroke-linejoin:round"></rect><rect x="230.95" y="155.89" width="5.47" height="6.11" style="fill:#949494;stroke:#8c8c8c;stroke-linecap:round;stroke-linejoin:round"></rect><rect x="230.95" y="169.14" width="5.47" height="6.11" style="fill:#949494;stroke:#8c8c8c;stroke-linecap:round;stroke-linejoin:round"></rect><rect x="230.95" y="182.39" width="5.47" height="6.11" style="fill:#949494;stroke:#8c8c8c;stroke-linecap:round;stroke-linejoin:round"></rect><rect x="230.95" y="195.64" width="5.47" height="6.11" style="fill:#949494;stroke:#8c8c8c;stroke-linecap:round;stroke-linejoin:round"></rect><rect x="230.95" y="208.88" width="5.47" height="6.11" style="fill:#949494;stroke:#8c8c8c;stroke-linecap:round;stroke-linejoin:round"></rect><rect x="230.95" y="222.13" width="5.47" height="6.11" style="fill:#949494;stroke:#8c8c8c;stroke-linecap:round;stroke-linejoin:round"></rect><rect x="230.95" y="235.38" width="5.47" height="6.11" style="fill:#949494;stroke:#8c8c8c;stroke-linecap:round;stroke-linejoin:round"></rect><rect x="230.95" y="248.63" width="5.47" height="6.11" style="fill:#949494;stroke:#8c8c8c;stroke-linecap:round;stroke-linejoin:round"></rect><rect x="230.95" y="261.88" width="5.47" height="6.11" style="fill:#949494;stroke:#8c8c8c;stroke-linecap:round;stroke-linejoin:round"></rect><rect x="230.95" y="275.12" width="5.47" height="6.11" style="fill:#949494;stroke:#8c8c8c;stroke-linecap:round;stroke-linejoin:round"></rect><rect x="230.95" y="288.37" width="5.47" height="6.11" style="fill:#949494;stroke:#8c8c8c;stroke-linecap:round;stroke-linejoin:round"></rect><rect x="230.95" y="301.62" width="5.47" height="6.11" style="fill:#949494;stroke:#8c8c8c;stroke-linecap:round;stroke-linejoin:round"></rect><rect x="230.95" y="314.87" width="5.47" height="6.11" style="fill:#949494;stroke:#8c8c8c;stroke-linecap:round;stroke-linejoin:round"></rect><rect x="230.95" y="328.11" width="5.47" height="6.11" style="fill:#949494;stroke:#8c8c8c;stroke-linecap:round;stroke-linejoin:round"></rect><rect x="230.95" y="341.36" width="5.47" height="6.11" style="fill:#949494;stroke:#8c8c8c;stroke-linecap:round;stroke-linejoin:round"></rect><rect x="230.95" y="354.61" width="5.47" height="6.11" style="fill:#949494;stroke:#8c8c8c;stroke-linecap:round;stroke-linejoin:round"></rect><rect x="230.95" y="367.86" width="5.47" height="6.11" style="fill:#949494;stroke:#8c8c8c;stroke-linecap:round;stroke-linejoin:round"></rect><rect x="230.95" y="381.1" width="5.47" height="6.11" style="fill:#949494;stroke:#8c8c8c;stroke-linecap:round;stroke-linejoin:round"></rect><rect x="230.95" y="394.35" width="5.47" height="6.11" style="fill:#949494;stroke:#8c8c8c;stroke-linecap:round;stroke-linejoin:round"></rect><rect x="230.95" y="407.6" width="5.47" height="6.11" style="fill:#949494;stroke:#8c8c8c;stroke-linecap:round;stroke-linejoin:round"></rect><rect x="230.95" y="420.85" width="5.47" height="6.11" style="fill:#949494;stroke:#8c8c8c;stroke-linecap:round;stroke-linejoin:round"></rect><rect x="230.95" y="434.1" width="5.47" height="6.11" style="fill:#949494;stroke:#8c8c8c;stroke-linecap:round;stroke-linejoin:round"></rect><rect x="230.95" y="447.34" width="5.47" height="6.11" style="fill:#949494;stroke:#8c8c8c;stroke-linecap:round;stroke-linejoin:round"></rect><rect x="230.95" y="460.59" width="5.47" height="6.11" style="fill:#949494;stroke:#8c8c8c;stroke-linecap:round;stroke-linejoin:round"></rect><rect x="226.6" y="473.84" width="11.21" height="6.11" style="fill:#949494;stroke:#8c8c8c;stroke-linecap:round;stroke-linejoin:round"></rect><rect x="114.79" y="142.19" width="111.27" height="13.43" style="fill:#407BFF"></rect><rect x="114.79" y="140.31" width="111.27" height="13.43" style="fill:#949494;stroke:#8c8c8c;stroke-linecap:round;stroke-linejoin:round"></rect><rect x="114.79" y="129.76" width="111.27" height="23.98" style="fill:none;stroke:#8c8c8c;stroke-linecap:round;stroke-linejoin:round"></rect><rect x="190.64" y="140.31" width="35.42" height="13.43" style="fill:#707070;stroke:#8c8c8c;stroke-linecap:round;stroke-linejoin:round"></rect><line x1="114.79" y1="140.31" x2="127.06" y2="130.24" style="fill:none;stroke:#8c8c8c;stroke-linecap:round;stroke-linejoin:round"></line><line x1="127.06" y1="140.31" x2="114.79" y2="130.24" style="fill:none;stroke:#8c8c8c;stroke-linecap:round;stroke-linejoin:round"></line><line x1="127.61" y1="140.31" x2="139.88" y2="130.24" style="fill:none;stroke:#8c8c8c;stroke-linecap:round;stroke-linejoin:round"></line><line x1="139.88" y1="140.31" x2="127.61" y2="130.24" style="fill:none;stroke:#8c8c8c;stroke-linecap:round;stroke-linejoin:round"></line><line x1="140.43" y1="140.31" x2="152.7" y2="130.24" style="fill:none;stroke:#8c8c8c;stroke-linecap:round;stroke-linejoin:round"></line><line x1="152.7" y1="140.31" x2="140.43" y2="130.24" style="fill:none;stroke:#8c8c8c;stroke-linecap:round;stroke-linejoin:round"></line><line x1="153.26" y1="140.31" x2="165.53" y2="130.24" style="fill:none;stroke:#8c8c8c;stroke-linecap:round;stroke-linejoin:round"></line><line x1="165.53" y1="140.31" x2="153.26" y2="130.24" style="fill:none;stroke:#8c8c8c;stroke-linecap:round;stroke-linejoin:round"></line><line x1="166.08" y1="140.31" x2="178.35" y2="130.24" style="fill:none;stroke:#8c8c8c;stroke-linecap:round;stroke-linejoin:round"></line><line x1="178.35" y1="140.31" x2="166.08" y2="130.24" style="fill:none;stroke:#8c8c8c;stroke-linecap:round;stroke-linejoin:round"></line><line x1="178.9" y1="140.31" x2="191.17" y2="130.24" style="fill:none;stroke:#8c8c8c;stroke-linecap:round;stroke-linejoin:round"></line><line x1="191.17" y1="140.31" x2="178.9" y2="130.24" style="fill:none;stroke:#8c8c8c;stroke-linecap:round;stroke-linejoin:round"></line><line x1="191.73" y1="140.31" x2="204" y2="130.24" style="fill:none;stroke:#8c8c8c;stroke-linecap:round;stroke-linejoin:round"></line><line x1="204" y1="140.31" x2="191.73" y2="130.24" style="fill:none;stroke:#8c8c8c;stroke-linecap:round;stroke-linejoin:round"></line><line x1="204.55" y1="140.31" x2="216.82" y2="130.24" style="fill:none;stroke:#8c8c8c;stroke-linecap:round;stroke-linejoin:round"></line><line x1="216.82" y1="140.31" x2="204.55" y2="130.24" style="fill:none;stroke:#8c8c8c;stroke-linecap:round;stroke-linejoin:round"></line><rect x="114.79" y="219.4" width="111.27" height="13.43" style="fill:#407BFF"></rect><rect x="114.79" y="217.52" width="111.27" height="13.43" style="fill:#949494;stroke:#8c8c8c;stroke-linecap:round;stroke-linejoin:round"></rect><rect x="114.79" y="206.97" width="111.27" height="23.98" style="fill:none;stroke:#8c8c8c;stroke-linecap:round;stroke-linejoin:round"></rect><rect x="190.64" y="217.52" width="35.42" height="13.43" style="fill:#707070;stroke:#8c8c8c;stroke-linecap:round;stroke-linejoin:round"></rect><line x1="114.79" y1="217.52" x2="127.06" y2="207.45" style="fill:none;stroke:#8c8c8c;stroke-linecap:round;stroke-linejoin:round"></line><line x1="127.06" y1="217.52" x2="114.79" y2="207.45" style="fill:none;stroke:#8c8c8c;stroke-linecap:round;stroke-linejoin:round"></line><line x1="127.61" y1="217.52" x2="139.88" y2="207.45" style="fill:none;stroke:#8c8c8c;stroke-linecap:round;stroke-linejoin:round"></line><line x1="139.88" y1="217.52" x2="127.61" y2="207.45" style="fill:none;stroke:#8c8c8c;stroke-linecap:round;stroke-linejoin:round"></line><line x1="140.43" y1="217.52" x2="152.7" y2="207.45" style="fill:none;stroke:#8c8c8c;stroke-linecap:round;stroke-linejoin:round"></line><line x1="152.7" y1="217.52" x2="140.43" y2="207.45" style="fill:none;stroke:#8c8c8c;stroke-linecap:round;stroke-linejoin:round"></line><line x1="153.26" y1="217.52" x2="165.53" y2="207.45" style="fill:none;stroke:#8c8c8c;stroke-linecap:round;stroke-linejoin:round"></line><line x1="165.53" y1="217.52" x2="153.26" y2="207.45" style="fill:none;stroke:#8c8c8c;stroke-linecap:round;stroke-linejoin:round"></line><line x1="166.08" y1="217.52" x2="178.35" y2="207.45" style="fill:none;stroke:#8c8c8c;stroke-linecap:round;stroke-linejoin:round"></line><line x1="178.35" y1="217.52" x2="166.08" y2="207.45" style="fill:none;stroke:#8c8c8c;stroke-linecap:round;stroke-linejoin:round"></line><line x1="178.9" y1="217.52" x2="191.17" y2="207.45" style="fill:none;stroke:#8c8c8c;stroke-linecap:round;stroke-linejoin:round"></line><line x1="191.17" y1="217.52" x2="178.9" y2="207.45" style="fill:none;stroke:#8c8c8c;stroke-linecap:round;stroke-linejoin:round"></line><line x1="191.73" y1="217.52" x2="204" y2="207.45" style="fill:none;stroke:#8c8c8c;stroke-linecap:round;stroke-linejoin:round"></line><line x1="204" y1="217.52" x2="191.73" y2="207.45" style="fill:none;stroke:#8c8c8c;stroke-linecap:round;stroke-linejoin:round"></line><line x1="204.55" y1="217.52" x2="216.82" y2="207.45" style="fill:none;stroke:#8c8c8c;stroke-linecap:round;stroke-linejoin:round"></line><line x1="216.82" y1="217.52" x2="204.55" y2="207.45" style="fill:none;stroke:#8c8c8c;stroke-linecap:round;stroke-linejoin:round"></line><rect x="263.79" y="63" width="49" height="425" transform="translate(576.57 551) rotate(180)" style="fill:#a3a3a3;stroke:#8c8c8c;stroke-linecap:round;stroke-linejoin:round"></rect><rect x="275.79" y="63" width="25" height="425" transform="translate(576.57 551) rotate(180)" style="fill:#4f4f4f;stroke:#8c8c8c;stroke-linecap:round;stroke-linejoin:round"></rect><rect x="263.79" y="63" width="49" height="21" transform="translate(576.57 147) rotate(180)" style="fill:#a3a3a3;stroke:#8c8c8c;stroke-linecap:round;stroke-linejoin:round"></rect><rect x="265.53" y="89.65" width="5.47" height="6.11" transform="translate(536.53 185.42) rotate(180)" style="fill:#949494;stroke:#8c8c8c;stroke-linecap:round;stroke-linejoin:round"></rect><rect x="265.53" y="102.9" width="5.47" height="6.11" transform="translate(536.53 211.92) rotate(180)" style="fill:#949494;stroke:#8c8c8c;stroke-linecap:round;stroke-linejoin:round"></rect><rect x="265.53" y="116.15" width="5.47" height="6.11" transform="translate(536.53 238.41) rotate(180)" style="fill:#949494;stroke:#8c8c8c;stroke-linecap:round;stroke-linejoin:round"></rect><rect x="265.53" y="129.4" width="5.47" height="6.11" transform="translate(536.53 264.91) rotate(180)" style="fill:#949494;stroke:#8c8c8c;stroke-linecap:round;stroke-linejoin:round"></rect><rect x="265.53" y="142.65" width="5.47" height="6.11" transform="translate(536.53 291.41) rotate(180)" style="fill:#949494;stroke:#8c8c8c;stroke-linecap:round;stroke-linejoin:round"></rect><rect x="265.53" y="155.89" width="5.47" height="6.11" transform="translate(536.53 317.9) rotate(180)" style="fill:#949494;stroke:#8c8c8c;stroke-linecap:round;stroke-linejoin:round"></rect><rect x="265.53" y="169.14" width="5.47" height="6.11" transform="translate(536.53 344.4) rotate(180)" style="fill:#949494;stroke:#8c8c8c;stroke-linecap:round;stroke-linejoin:round"></rect><rect x="265.53" y="182.39" width="5.47" height="6.11" transform="translate(536.53 370.89) rotate(180)" style="fill:#949494;stroke:#8c8c8c;stroke-linecap:round;stroke-linejoin:round"></rect><rect x="265.53" y="195.64" width="5.47" height="6.11" transform="translate(536.53 397.39) rotate(180)" style="fill:#949494;stroke:#8c8c8c;stroke-linecap:round;stroke-linejoin:round"></rect><rect x="265.53" y="208.88" width="5.47" height="6.11" transform="translate(536.53 423.88) rotate(180)" style="fill:#949494;stroke:#8c8c8c;stroke-linecap:round;stroke-linejoin:round"></rect><rect x="265.53" y="222.13" width="5.47" height="6.11" transform="translate(536.53 450.38) rotate(180)" style="fill:#949494;stroke:#8c8c8c;stroke-linecap:round;stroke-linejoin:round"></rect><rect x="265.53" y="235.38" width="5.47" height="6.11" transform="translate(536.53 476.87) rotate(180)" style="fill:#949494;stroke:#8c8c8c;stroke-linecap:round;stroke-linejoin:round"></rect><rect x="265.53" y="248.63" width="5.47" height="6.11" transform="translate(536.53 503.37) rotate(180)" style="fill:#949494;stroke:#8c8c8c;stroke-linecap:round;stroke-linejoin:round"></rect><rect x="265.53" y="261.88" width="5.47" height="6.11" transform="translate(536.53 529.86) rotate(180)" style="fill:#949494;stroke:#8c8c8c;stroke-linecap:round;stroke-linejoin:round"></rect><rect x="265.53" y="275.12" width="5.47" height="6.11" transform="translate(536.53 556.36) rotate(180)" style="fill:#949494;stroke:#8c8c8c;stroke-linecap:round;stroke-linejoin:round"></rect><rect x="265.53" y="288.37" width="5.47" height="6.11" transform="translate(536.53 582.86) rotate(180)" style="fill:#949494;stroke:#8c8c8c;stroke-linecap:round;stroke-linejoin:round"></rect><rect x="265.53" y="301.62" width="5.47" height="6.11" transform="translate(536.53 609.35) rotate(180)" style="fill:#949494;stroke:#8c8c8c;stroke-linecap:round;stroke-linejoin:round"></rect><rect x="265.53" y="314.87" width="5.47" height="6.11" transform="translate(536.53 635.85) rotate(180)" style="fill:#949494;stroke:#8c8c8c;stroke-linecap:round;stroke-linejoin:round"></rect><rect x="265.53" y="328.11" width="5.47" height="6.11" transform="translate(536.53 662.34) rotate(180)" style="fill:#949494;stroke:#8c8c8c;stroke-linecap:round;stroke-linejoin:round"></rect><rect x="265.53" y="341.36" width="5.47" height="6.11" transform="translate(536.53 688.84) rotate(180)" style="fill:#949494;stroke:#8c8c8c;stroke-linecap:round;stroke-linejoin:round"></rect><rect x="265.53" y="354.61" width="5.47" height="6.11" transform="translate(536.53 715.33) rotate(180)" style="fill:#949494;stroke:#8c8c8c;stroke-linecap:round;stroke-linejoin:round"></rect><rect x="265.53" y="367.86" width="5.47" height="6.11" transform="translate(536.53 741.83) rotate(180)" style="fill:#949494;stroke:#8c8c8c;stroke-linecap:round;stroke-linejoin:round"></rect><rect x="265.53" y="381.1" width="5.47" height="6.11" transform="translate(536.53 768.32) rotate(180)" style="fill:#949494;stroke:#8c8c8c;stroke-linecap:round;stroke-linejoin:round"></rect><rect x="265.53" y="394.35" width="5.47" height="6.11" transform="translate(536.53 794.82) rotate(180)" style="fill:#949494;stroke:#8c8c8c;stroke-linecap:round;stroke-linejoin:round"></rect><rect x="265.53" y="407.6" width="5.47" height="6.11" transform="translate(536.53 821.31) rotate(180)" style="fill:#949494;stroke:#8c8c8c;stroke-linecap:round;stroke-linejoin:round"></rect><rect x="265.53" y="420.85" width="5.47" height="6.11" transform="translate(536.53 847.81) rotate(180)" style="fill:#949494;stroke:#8c8c8c;stroke-linecap:round;stroke-linejoin:round"></rect><rect x="265.53" y="434.1" width="5.47" height="6.11" transform="translate(536.53 874.31) rotate(180)" style="fill:#949494;stroke:#8c8c8c;stroke-linecap:round;stroke-linejoin:round"></rect><rect x="265.53" y="447.34" width="5.47" height="6.11" transform="translate(536.53 900.8) rotate(180)" style="fill:#949494;stroke:#8c8c8c;stroke-linecap:round;stroke-linejoin:round"></rect><rect x="265.53" y="460.59" width="5.47" height="6.11" transform="translate(536.53 927.3) rotate(180)" style="fill:#949494;stroke:#8c8c8c;stroke-linecap:round;stroke-linejoin:round"></rect><rect x="264.14" y="473.84" width="11.21" height="6.11" transform="translate(539.49 953.79) rotate(180)" style="fill:#949494;stroke:#8c8c8c;stroke-linecap:round;stroke-linejoin:round"></rect><rect x="275.76" y="142.19" width="111.27" height="13.43" transform="translate(662.79 297.8) rotate(180)" style="fill:#407BFF"></rect><rect x="275.76" y="140.31" width="111.27" height="13.43" transform="translate(662.79 294.06) rotate(180)" style="fill:#949494;stroke:#8c8c8c;stroke-linecap:round;stroke-linejoin:round"></rect><rect x="275.76" y="129.76" width="111.27" height="23.98" transform="translate(662.79 283.51) rotate(180)" style="fill:none;stroke:#8c8c8c;stroke-linecap:round;stroke-linejoin:round"></rect><rect x="275.76" y="140.31" width="35.42" height="13.43" transform="translate(586.94 294.06) rotate(180)" style="fill:#707070;stroke:#8c8c8c;stroke-linecap:round;stroke-linejoin:round"></rect><line x1="387.03" y1="140.31" x2="374.76" y2="130.24" style="fill:none;stroke:#8c8c8c;stroke-linecap:round;stroke-linejoin:round"></line><line x1="374.76" y1="140.31" x2="387.03" y2="130.24" style="fill:none;stroke:#8c8c8c;stroke-linecap:round;stroke-linejoin:round"></line><line x1="374.21" y1="140.31" x2="361.94" y2="130.24" style="fill:none;stroke:#8c8c8c;stroke-linecap:round;stroke-linejoin:round"></line><line x1="361.94" y1="140.31" x2="374.21" y2="130.24" style="fill:none;stroke:#8c8c8c;stroke-linecap:round;stroke-linejoin:round"></line><line x1="361.39" y1="140.31" x2="349.12" y2="130.24" style="fill:none;stroke:#8c8c8c;stroke-linecap:round;stroke-linejoin:round"></line><line x1="349.12" y1="140.31" x2="361.39" y2="130.24" style="fill:none;stroke:#8c8c8c;stroke-linecap:round;stroke-linejoin:round"></line><line x1="348.56" y1="140.31" x2="336.29" y2="130.24" style="fill:none;stroke:#8c8c8c;stroke-linecap:round;stroke-linejoin:round"></line><line x1="336.29" y1="140.31" x2="348.56" y2="130.24" style="fill:none;stroke:#8c8c8c;stroke-linecap:round;stroke-linejoin:round"></line><line x1="335.74" y1="140.31" x2="323.47" y2="130.24" style="fill:none;stroke:#8c8c8c;stroke-linecap:round;stroke-linejoin:round"></line><line x1="323.47" y1="140.31" x2="335.74" y2="130.24" style="fill:none;stroke:#8c8c8c;stroke-linecap:round;stroke-linejoin:round"></line><line x1="322.92" y1="140.31" x2="310.65" y2="130.24" style="fill:none;stroke:#8c8c8c;stroke-linecap:round;stroke-linejoin:round"></line><line x1="310.65" y1="140.31" x2="322.92" y2="130.24" style="fill:none;stroke:#8c8c8c;stroke-linecap:round;stroke-linejoin:round"></line><line x1="310.09" y1="140.31" x2="297.82" y2="130.24" style="fill:none;stroke:#8c8c8c;stroke-linecap:round;stroke-linejoin:round"></line><line x1="297.82" y1="140.31" x2="310.09" y2="130.24" style="fill:none;stroke:#8c8c8c;stroke-linecap:round;stroke-linejoin:round"></line><line x1="297.27" y1="140.31" x2="285" y2="130.24" style="fill:none;stroke:#8c8c8c;stroke-linecap:round;stroke-linejoin:round"></line><line x1="285" y1="140.31" x2="297.27" y2="130.24" style="fill:none;stroke:#8c8c8c;stroke-linecap:round;stroke-linejoin:round"></line><rect x="275.76" y="219.4" width="111.27" height="13.43" transform="translate(662.79 452.22) rotate(180)" style="fill:#407BFF"></rect><rect x="275.76" y="217.52" width="111.27" height="13.43" transform="translate(662.79 448.48) rotate(180)" style="fill:#949494;stroke:#8c8c8c;stroke-linecap:round;stroke-linejoin:round"></rect><rect x="275.76" y="206.97" width="111.27" height="23.98" transform="translate(662.79 437.93) rotate(180)" style="fill:none;stroke:#8c8c8c;stroke-linecap:round;stroke-linejoin:round"></rect><rect x="275.76" y="217.52" width="35.42" height="13.43" transform="translate(586.94 448.48) rotate(180)" style="fill:#707070;stroke:#8c8c8c;stroke-linecap:round;stroke-linejoin:round"></rect><line x1="387.03" y1="217.52" x2="374.76" y2="207.45" style="fill:none;stroke:#8c8c8c;stroke-linecap:round;stroke-linejoin:round"></line><line x1="374.76" y1="217.52" x2="387.03" y2="207.45" style="fill:none;stroke:#8c8c8c;stroke-linecap:round;stroke-linejoin:round"></line><line x1="374.21" y1="217.52" x2="361.94" y2="207.45" style="fill:none;stroke:#8c8c8c;stroke-linecap:round;stroke-linejoin:round"></line><line x1="361.94" y1="217.52" x2="374.21" y2="207.45" style="fill:none;stroke:#8c8c8c;stroke-linecap:round;stroke-linejoin:round"></line><line x1="361.39" y1="217.52" x2="349.12" y2="207.45" style="fill:none;stroke:#8c8c8c;stroke-linecap:round;stroke-linejoin:round"></line><line x1="349.12" y1="217.52" x2="361.39" y2="207.45" style="fill:none;stroke:#8c8c8c;stroke-linecap:round;stroke-linejoin:round"></line><line x1="348.56" y1="217.52" x2="336.29" y2="207.45" style="fill:none;stroke:#8c8c8c;stroke-linecap:round;stroke-linejoin:round"></line><line x1="336.29" y1="217.52" x2="348.56" y2="207.45" style="fill:none;stroke:#8c8c8c;stroke-linecap:round;stroke-linejoin:round"></line><line x1="335.74" y1="217.52" x2="323.47" y2="207.45" style="fill:none;stroke:#8c8c8c;stroke-linecap:round;stroke-linejoin:round"></line><line x1="323.47" y1="217.52" x2="335.74" y2="207.45" style="fill:none;stroke:#8c8c8c;stroke-linecap:round;stroke-linejoin:round"></line><line x1="322.92" y1="217.52" x2="310.65" y2="207.45" style="fill:none;stroke:#8c8c8c;stroke-linecap:round;stroke-linejoin:round"></line><line x1="310.65" y1="217.52" x2="322.92" y2="207.45" style="fill:none;stroke:#8c8c8c;stroke-linecap:round;stroke-linejoin:round"></line><line x1="310.09" y1="217.52" x2="297.82" y2="207.45" style="fill:none;stroke:#8c8c8c;stroke-linecap:round;stroke-linejoin:round"></line><line x1="297.82" y1="217.52" x2="310.09" y2="207.45" style="fill:none;stroke:#8c8c8c;stroke-linecap:round;stroke-linejoin:round"></line><line x1="297.27" y1="217.52" x2="285" y2="207.45" style="fill:none;stroke:#8c8c8c;stroke-linecap:round;stroke-linejoin:round"></line><line x1="285" y1="217.52" x2="297.27" y2="207.45" style="fill:none;stroke:#8c8c8c;stroke-linecap:round;stroke-linejoin:round"></line><rect x="236.16" y="63" width="29.11" height="425" style="fill:#d9d9d9;stroke:#8c8c8c;stroke-linecap:round;stroke-linejoin:round"></rect><polygon points="320 426 311.82 426 191.18 426 183 426 183 447 191.18 447 191.18 488 311.82 488 311.82 447 320 447 320 426" style="fill:#fff;stroke:#8c8c8c;stroke-linecap:round;stroke-linejoin:round"></polygon></g><g id="freepik--Rocket--inject-53"><path d="M390.71,488a22.5,22.5,0,1,0-39.18-21.85,15.47,15.47,0,0,0-27-3.79,10.49,10.49,0,0,0-7.65-4.32,12.85,12.85,0,0,0,.65-4A13,13,0,0,0,311.33,443a19.76,19.76,0,0,0,.17-2.45,19.49,19.49,0,0,0-17.2-19.35l-2.92-65.65H270.19l-3.27,62.66-3.59-70H238.85l-4.14,68.55L232,355.5H210.81L207.38,421l-.38,0a19.5,19.5,0,0,0-19.5,19.5c0,.29,0,.58,0,.87a13.18,13.18,0,0,0-3-.37,13,13,0,0,0-13,13,12.85,12.85,0,0,0,.65,4,10.49,10.49,0,0,0-7.65,4.32,15.47,15.47,0,0,0-27,3.79A22.5,22.5,0,1,0,98.3,488Z" style="fill:#407BFF"></path><path d="M376.68,488a16.47,16.47,0,0,0-25-5.38,10.74,10.74,0,0,0-17-4.92,16.48,16.48,0,0,0-25.74-10.12,19.48,19.48,0,0,0-28.52-15.83A33.49,33.49,0,0,0,224.75,450a19.49,19.49,0,1,0-28.13,26.53,16.63,16.63,0,0,0-.82,2.82,16.48,16.48,0,0,0-24.41,7,10.73,10.73,0,0,0-17-.44A16.47,16.47,0,0,0,126.32,488Z" style="fill:#407BFF"></path><path d="M376.68,488a16.47,16.47,0,0,0-25-5.38,10.74,10.74,0,0,0-17-4.92,16.48,16.48,0,0,0-25.74-10.12,19.48,19.48,0,0,0-28.52-15.83A33.49,33.49,0,0,0,224.75,450a19.49,19.49,0,1,0-28.13,26.53,16.63,16.63,0,0,0-.82,2.82,16.48,16.48,0,0,0-24.41,7,10.73,10.73,0,0,0-17-.44A16.47,16.47,0,0,0,126.32,488Z" style="opacity:0.30000000000000004"></path><polygon points="232.48 331.71 210.32 331.71 207.55 340.34 235.25 340.34 232.48 331.71" style="fill:#d9d9d9;stroke:#263238;stroke-linecap:round;stroke-linejoin:round"></polygon><polygon points="229.88 346.88 212.93 346.88 210.81 355.5 232 355.5 229.88 346.88" style="fill:#263238;stroke:#263238;stroke-linecap:round;stroke-linejoin:round"></polygon><polygon points="232.41 347.09 210.39 347.09 207.64 340.34 235.17 340.34 232.41 347.09" style="fill:#407BFF;stroke:#263238;stroke-linecap:round;stroke-linejoin:round"></polygon><rect x="209.94" y="185.9" width="22.93" height="146.94" style="fill:#fff;stroke:#263238;stroke-linecap:round;stroke-linejoin:round"></rect><rect x="216.28" y="193.82" width="9.6" height="3.28" style="fill:#263238"></rect><rect x="216.28" y="198.5" width="9.6" height="3.28" style="fill:#263238"></rect><path d="M221.4,158.48h0a4.85,4.85,0,0,0-4.67,3.53l-6.79,24h22.93l-6.8-24A4.85,4.85,0,0,0,221.4,158.48Z" style="fill:#d9d9d9;stroke:#263238;stroke-linecap:round;stroke-linejoin:round"></path><polygon points="292.09 331.71 269.94 331.71 267.17 340.34 294.86 340.34 292.09 331.71" style="fill:#d9d9d9;stroke:#263238;stroke-linecap:round;stroke-linejoin:round"></polygon><polygon points="289.49 346.88 272.54 346.88 270.42 355.5 291.61 355.5 289.49 346.88" style="fill:#263238;stroke:#263238;stroke-linecap:round;stroke-linejoin:round"></polygon><polygon points="292.03 347.09 270 347.09 267.25 340.34 294.78 340.34 292.03 347.09" style="fill:#407BFF;stroke:#263238;stroke-linecap:round;stroke-linejoin:round"></polygon><rect x="269.55" y="185.9" width="22.93" height="146.94" style="fill:#fff;stroke:#263238;stroke-linecap:round;stroke-linejoin:round"></rect><path d="M279.5,200c0-1.28.64-2.11,1.92-2.11s1.93.83,1.93,2.11v4.33c0,1.28-.63,2.12-1.93,2.12s-1.92-.84-1.92-2.12Zm.92,4.39c0,.76.33,1.21,1,1.21s1-.45,1-1.21V200c0-.76-.32-1.22-1-1.22s-1,.46-1,1.22Z" style="fill:#263238"></path><path d="M280.52,215.82a1.36,1.36,0,0,1,1.25-.69c1.08,0,1.56.79,1.56,2v1.64c0,1.28-.61,2.12-1.9,2.12s-1.88-.84-1.88-2.12v-.56h.87v.62c0,.76.32,1.21,1,1.21s1-.45,1-1.21v-1.63c0-.76-.31-1.21-1-1.21a.9.9,0,0,0-1,.9v.19h-.88l.23-4.67h3.31v.84h-2.47Z" style="fill:#263238"></path><path d="M283.34,228.82V229h-.88v-.22c0-.76-.31-1.2-1-1.2s-1,.46-1,1.35v1.89a1.34,1.34,0,0,1,1.35-.9c1.08,0,1.56.78,1.56,2v1.27c0,1.28-.63,2.12-1.92,2.12s-1.93-.84-1.93-2.12v-4.28c0-1.33.6-2.16,1.93-2.16S283.34,227.54,283.34,228.82ZM280.45,232v1.26c0,.76.31,1.21,1,1.21s1-.45,1-1.21V232c0-.75-.32-1.21-1-1.21S280.45,231.21,280.45,232Z" style="fill:#263238"></path><path d="M283.34,243.23v4.28c0,1.33-.6,2.17-1.94,2.17s-1.9-.82-1.9-2.11v-.15h.88v.21c0,.76.32,1.2,1,1.2s1-.45,1-1.34v-1.88a1.33,1.33,0,0,1-1.35.88c-1.08,0-1.56-.76-1.56-2v-1.29c0-1.28.62-2.11,1.92-2.11S283.34,242,283.34,243.23Zm-2.93,0v1.26c0,.76.33,1.21,1,1.21s1-.45,1-1.21v-1.26c0-.76-.31-1.21-1-1.21S280.41,242.42,280.41,243.18Z" style="fill:#263238"></path><path d="M281.38,260.38,280,264h-.89l1.69-4.33-1.58-4.07h1l1.3,3.36,1.31-3.36h.87l-1.57,4.07,1.68,4.33h-1Z" style="fill:#263238"></path><path d="M281,158.48h0a4.86,4.86,0,0,0-4.67,3.53l-6.79,24h22.93l-6.8-24A4.85,4.85,0,0,0,281,158.48Z" style="fill:#d9d9d9;stroke:#263238;stroke-linecap:round;stroke-linejoin:round"></path><rect x="235.65" y="55.85" width="30.78" height="47.63" style="fill:#fff;stroke:#263238;stroke-linecap:round;stroke-linejoin:round"></rect><polygon points="263.36 109.95 238.73 109.95 235.65 103.56 266.44 103.56 263.36 109.95" style="fill:#407BFF;stroke:#263238;stroke-linecap:round;stroke-linejoin:round"></polygon><polygon points="263.36 169.56 238.73 169.56 235.65 163.17 266.44 163.17 263.36 169.56" style="fill:#263238;stroke:#263238;stroke-linecap:round;stroke-linejoin:round"></polygon><rect x="235.65" y="116.23" width="30.78" height="47.63" style="fill:#fff;stroke:#263238;stroke-linecap:round;stroke-linejoin:round"></rect><polygon points="263.36 109.75 238.73 109.75 235.65 116.14 266.44 116.14 263.36 109.75" style="fill:#d9d9d9;stroke:#263238;stroke-linecap:round;stroke-linejoin:round"></polygon><rect x="235.65" y="175.84" width="30.78" height="154.15" style="fill:#fff;stroke:#263238;stroke-linecap:round;stroke-linejoin:round"></rect><line x1="235.68" y1="190" x2="266.45" y2="190" style="fill:none;stroke:#263238;stroke-linecap:round;stroke-linejoin:round"></line><line x1="235.68" y1="212.38" x2="266.45" y2="212.38" style="fill:none;stroke:#263238;stroke-linecap:round;stroke-linejoin:round"></line><line x1="235.68" y1="234.76" x2="266.45" y2="234.76" style="fill:none;stroke:#263238;stroke-linecap:round;stroke-linejoin:round"></line><line x1="235.68" y1="257.14" x2="266.45" y2="257.14" style="fill:none;stroke:#263238;stroke-linecap:round;stroke-linejoin:round"></line><line x1="235.68" y1="279.51" x2="266.45" y2="279.51" style="fill:none;stroke:#263238;stroke-linecap:round;stroke-linejoin:round"></line><line x1="250.6" y1="257.14" x2="250.6" y2="279.05" style="fill:none;stroke:#263238;stroke-linecap:round;stroke-linejoin:round"></line><polygon points="261.29 339.88 241.17 339.88 238.66 348.5 263.81 348.5 261.29 339.88" style="fill:#263238;stroke:#263238;stroke-linecap:round;stroke-linejoin:round"></polygon><polygon points="263.27 340.51 238.81 340.51 235.76 330 266.33 330 263.27 340.51" style="fill:#407BFF;stroke:#263238;stroke-linecap:round;stroke-linejoin:round"></polygon><path d="M251,309.66h0a12,12,0,0,0-11.95,12v18.29H263V321.62A12,12,0,0,0,251,309.66Z" style="fill:none;stroke:#263238;stroke-linecap:round;stroke-linejoin:round"></path><polygon points="263.36 169.37 238.73 169.37 235.65 175.75 266.44 175.75 263.36 169.37" style="fill:#263238;stroke:#263238;stroke-linecap:round;stroke-linejoin:round"></polygon><path d="M251,27h0a8.42,8.42,0,0,0-8,5.86l-7.37,23.07h30.78l-7.36-23.07A8.42,8.42,0,0,0,251,27Z" style="fill:#d9d9d9;stroke:#263238;stroke-linecap:round;stroke-linejoin:round"></path><rect x="229.92" y="285.65" width="8.81" height="2.59" style="fill:#fff;stroke:#263238;stroke-linecap:round;stroke-linejoin:round"></rect><rect x="263.1" y="285.65" width="8.81" height="2.59" style="fill:#fff;stroke:#263238;stroke-linecap:round;stroke-linejoin:round"></rect></g><g id="freepik--Floor--inject-53"><line x1="38" y1="488" x2="465" y2="488" style="fill:none;stroke:#263238;stroke-linecap:round;stroke-linejoin:round"></line></g></svg>